<svg id="Layer_1" data-name="Layer 1" xmlns="http://www.w3.org/2000/svg" viewBox="0 0 1280 1280"><defs><style>.cls-1{fill:#50b1ea;}.cls-2{fill:#fff;}</style></defs><title>refali-feature-image</title><rect class="cls-1" width="1280" height="1280"/><path class="cls-2" d="M270.22,560h78.16c41.73,0,62.71,15.45,62.71,46.8,0,21.67-9.91,36.89-27.9,43.34L412,720H359.45L335.7,659.37H318.87V720H270.22Zm48.65,34.12v31.36h23.28c12,0,19.37-6.92,19.37-15.68,0-10.61-6.68-15.68-20.06-15.68Z"/><path class="cls-2" d="M429.77,560H550.35v37.35H476.57v23.51h60.64v34.59H476.57v27.2h74.7V720H429.77Z"/><path class="cls-2" d="M573.4,560H689.14v37.35H622.51v26.51h52.34v36H622.51V720H573.4Z"/><path class="cls-2" d="M771.54,565.12l47,149.76H778.9l-8.37-28.38-1.09-3.67H718.62l-1,3.74-7.94,28.31H681l46-149.76h44.56M724.76,658.5h39.29l-1.8-6.5-12.91-46.57-4.93-17.81-4.94,17.81L726.56,652l-1.8,6.5M775.3,560H723.19L674.08,720h39.43l9-32h43.11l9.46,32h50.49L775.3,560Zm-43.8,93.37,12.9-46.57,12.91,46.57Z"/><path class="cls-2" d="M880.38,565.12V688h62.48v26.87H841.52V565.12h38.86m5.13-5.12H836.4V720H948V682.88H885.51V560Z"/><path class="cls-2" d="M1004.65,565.12v27.1H964.87v-27.1h39.78m5.13-5.12h-50v37.35h50V560Z"/><path class="cls-2" d="M1004.65,629v85.89H964.87V629h39.78m5.13-5.13h-50V720h50V623.86Z"/></svg>