<svg xmlns="http://www.w3.org/2000/svg" id="Layer_1" data-name="Layer 1" viewBox="0 0 600 600" width="600" height="600"><metadata><rdf:RDF xmlns:rdf="http://www.w3.org/1999/02/22-rdf-syntax-ns#" xmlns:dc="http://purl.org/dc/elements/1.1/"><rdf:Description><dc:creator>RealFaviconGenerator</dc:creator><dc:source>https://realfavicongenerator.net</dc:source></rdf:Description></rdf:RDF></metadata><defs>
    <style>
      .cls-1 {
        fill: #0c5;
      }

      .cls-2 {
        fill: #fff;
      }
    </style>
  </defs><circle class="cls-1" cx="300" cy="300" r="300"></circle><path class="cls-2" d="M472.83,208.65c16.66,17.08,24.99,42.84,24.99,77.28v131.04h-94.92v-114.66c0-26.32-8.54-39.48-25.62-39.48-8.96,0-16.17,3.36-21.63,10.08s-8.19,17.36-8.19,31.92v112.14h-94.92v-114.66c0-26.32-8.54-39.48-25.62-39.48-8.96,0-16.17,3.36-21.63,10.08s-8.19,17.36-8.19,31.92v112.14h-94.92v-229.74h90.3v21.42c17.08-17.08,38.78-25.62,65.1-25.62,15.4,0,29.26,2.87,41.58,8.61,12.32,5.74,22.4,14.49,30.24,26.25,9.24-11.2,20.44-19.81,33.6-25.83,13.16-6.02,27.58-9.03,43.26-9.03,27.72,0,49.91,8.54,66.57,25.62Z"></path></svg>