<svg xmlns="http://www.w3.org/2000/svg" id="Icon" viewBox="0 0 600 600" width="600" height="600"><metadata><rdf:RDF xmlns:rdf="http://www.w3.org/1999/02/22-rdf-syntax-ns#" xmlns:dc="http://purl.org/dc/elements/1.1/"><rdf:Description><dc:creator>RealFaviconGenerator</dc:creator><dc:source>https://realfavicongenerator.net</dc:source></rdf:Description></rdf:RDF></metadata><defs>
    <style>
      .cls-1 {
        fill: #0c5;
      }

      .cls-2 {
        fill: #fff;
      }
    </style>
  </defs><rect class="cls-1" width="600" height="600" rx="100" ry="100"></rect><path class="cls-2" d="M485.18,202.12c17.85,18.3,26.78,45.9,26.78,82.8v140.4h-101.7v-122.85c0-28.2-9.15-42.3-27.45-42.3-9.61,0-17.33,3.6-23.18,10.8s-8.78,18.6-8.78,34.2v120.15h-101.7v-122.85c0-28.2-9.15-42.3-27.45-42.3-9.6,0-17.32,3.6-23.17,10.8s-8.77,18.6-8.77,34.2v120.15h-101.7v-246.15h96.75v22.95c18.3-18.29,41.55-27.45,69.75-27.45,16.5,0,31.35,3.08,44.55,9.22,13.2,6.15,24,15.53,32.4,28.12,9.9-12,21.9-21.22,36-27.67,14.1-6.45,29.54-9.67,46.35-9.67,29.7,0,53.47,9.15,71.33,27.45Z"></path></svg>