<?xml version="1.0" standalone="no"?>
<!DOCTYPE svg PUBLIC "-//W3C//DTD SVG 20010904//EN"
 "http://www.w3.org/TR/2001/REC-SVG-20010904/DTD/svg10.dtd">
<svg version="1.0" xmlns="http://www.w3.org/2000/svg"
 width="700.000000pt" height="700.000000pt" viewBox="0 0 700.000000 700.000000"
 preserveAspectRatio="xMidYMid meet">
<metadata>
Created by potrace 1.11, written by Peter Selinger 2001-2013
</metadata>
<g transform="translate(0.000000,700.000000) scale(0.100000,-0.100000)"
fill="#000000" stroke="none">
<path d="M3280 6994 c-19 -2 -84 -9 -145 -15 -734 -71 -1454 -395 -1995 -897
-522 -484 -871 -1068 -1035 -1734 -74 -302 -99 -512 -99 -848 0 -268 7 -363
45 -588 166 -997 771 -1881 1648 -2411 422 -255 877 -411 1396 -478 196 -25
614 -25 810 0 430 56 786 162 1155 346 728 363 1313 974 1638 1711 304 689
380 1456 216 2188 -216 964 -834 1793 -1702 2285 -397 224 -826 364 -1305 423
-115 14 -550 27 -627 18z m-46 -1998 c234 -61 416 -193 534 -387 21 -34 43
-64 49 -66 6 -2 32 31 59 74 64 104 189 226 287 282 202 114 459 156 717 116
443 -67 720 -378 770 -866 6 -63 10 -484 10 -1114 0 -1009 0 -1012 -21 -1039
l-20 -26 -374 0 -374 0 -20 26 c-21 27 -21 31 -21 958 0 1021 0 1010 -60 1132
-40 83 -138 174 -217 204 -80 31 -208 38 -293 16 -163 -42 -279 -164 -325
-341 -13 -51 -15 -188 -15 -1003 l0 -943 -25 -24 -24 -25 -364 0 c-333 0 -367
2 -386 17 -21 18 -21 19 -24 968 -3 867 -4 955 -20 1010 -70 240 -241 367
-477 352 -150 -9 -274 -75 -349 -188 -81 -121 -75 -45 -81 -1140 -5 -943 -6
-978 -24 -998 -19 -21 -26 -21 -392 -21 l-373 0 -20 26 -21 27 0 1449 c0 1463
0 1478 34 1500 6 4 178 8 383 8 324 0 374 -2 387 -16 22 -22 26 -43 29 -178 1
-69 6 -121 12 -122 6 -2 30 24 55 58 81 109 234 216 375 262 168 53 438 59
619 12z"/>
</g>
</svg>
