<svg id="Layer_1" data-name="Layer 1" xmlns="http://www.w3.org/2000/svg" xmlns:xlink="http://www.w3.org/1999/xlink" viewBox="0 0 600 500"><defs><style>.cls-1,.cls-5{fill:none;}.cls-2{fill:#fee050;}.cls-3{clip-path:url(#clip-path);}.cls-4{font-size:26px;font-family:Helvetica-Bold, Helvetica;font-weight:700;}.cls-5{stroke:#000;stroke-miterlimit:10;stroke-width:2.5px;}.cls-6{letter-spacing:-0.03em;}.cls-7{letter-spacing:-0.03em;}</style><clipPath id="clip-path"><rect class="cls-1" width="600" height="500"/></clipPath></defs><title>Artboard 1</title><rect class="cls-2" width="600" height="500"/><polygon points="220.1 55.17 208.45 55.17 208.45 70.27 216.27 70.27 216.27 78.95 208.45 78.95 208.45 103.98 200 103.98 200 46.49 220.1 46.49 220.1 55.17"/><path d="M232.53,65.18l-.24-1.48h-.47l-.23,1.48-2.43,18.15H235ZM218.21,104l8.69-57.49h10.32L245.9,104h-8.21l-1.56-11.73H228L226.43,104Z"/><g class="cls-3"><path d="M269.44,84.27v7.9a15.53,15.53,0,0,1-1.4,6.26,10.78,10.78,0,0,1-3.37,4.22,10,10,0,0,1-6.49,2,10.31,10.31,0,0,1-6.57-2,10.53,10.53,0,0,1-3.28-4.22,15.7,15.7,0,0,1-1.41-6.26V58.3a15.63,15.63,0,0,1,1.41-6.18,9.92,9.92,0,0,1,9.85-6.26,10.51,10.51,0,0,1,6.49,2,11,11,0,0,1,3.37,4.3,15.46,15.46,0,0,1,1.4,6.18v7.9h-7.9V58.3a4.94,4.94,0,0,0-1.25-3.6,2.85,2.85,0,0,0-4.53,1.49,7.92,7.92,0,0,0-.39,2.11V92.17a5.37,5.37,0,0,0,1.32,3.6,2.26,2.26,0,0,0,1.65.62,2.72,2.72,0,0,0,2.89-2.11,5.37,5.37,0,0,0,.31-2.11v-7.9Z"/></g><polygon points="272.18 46.49 272.18 103.98 291.5 103.98 291.5 95.3 280.63 95.3 280.63 79.5 288.45 79.5 288.45 70.27 280.63 70.27 280.63 55.17 298.85 55.17 298.85 103.98 307.3 103.98 307.3 55.17 315.28 55.17 315.28 46.49 292.82 46.49 289.85 49.46 286.88 46.49 272.18 46.49"/><g class="cls-3"><path d="M330.22,61.9a18.76,18.76,0,0,0-.63-5.63c-.55-1.57-1.41-2.66-2.74-2.66-2.19.08-2.89,2.34-2.89,5.71a13,13,0,0,0,2.11,6.18c1.25,2.19,2.89,4.46,4.54,6.88A88.14,88.14,0,0,1,336,81.14a19.68,19.68,0,0,1,2.51,9c0,3.83-.63,7.43-2.43,10.09s-4.69,4.38-9.31,4.38c-5.39,0-8.44-2-10.16-5.17s-2.12-7.27-2.12-11.57l8.3-.79a21.57,21.57,0,0,0,.7,6.65c.55,1.88,1.48,3.13,3.28,3.13,2.51,0,3.45-2.66,3.45-6.33,0-1.88-.94-4.07-2.19-6.34-.71-1.09-1.41-2.27-2.19-3.44-1.65-2.35-3.45-5-5.32-7.9a32.68,32.68,0,0,1-4.15-8.92,15.29,15.29,0,0,1-.7-4.61,16.09,16.09,0,0,1,2.5-9.08,10.27,10.27,0,0,1,8.53-4.38c5.08-.07,8.05,2,9.69,5.09a22.35,22.35,0,0,1,2.12,10.17Z"/></g><path d="M400,46.49H342.51V104H400Zm-1.91,55.58H344.42V48.4h53.67Z"/><g class="cls-3"><path d="M353.67,98.67a4.61,4.61,0,0,1-2.14.49,3.76,3.76,0,1,1,0-7.51,4.73,4.73,0,0,1,2,.45v1.62a3.75,3.75,0,0,0-2-.63,2.25,2.25,0,0,0-2.37,2.3,2.28,2.28,0,0,0,2.43,2.33,3.63,3.63,0,0,0,2.07-.68Z"/><path d="M357.09,95a2.28,2.28,0,0,0,1-.17.74.74,0,0,0,.42-.73.71.71,0,0,0-.42-.71,2.71,2.71,0,0,0-1.19-.19h-.62V95Zm-2.41-3.2H357a4.4,4.4,0,0,1,2.26.48,1.88,1.88,0,0,1,.88,1.72A2,2,0,0,1,359,95.85l-.32.13,2.05,3.07h-1.84L357,96.19h-.72v2.86h-1.6Z"/></g><polygon points="361.25 91.76 365.75 91.76 365.75 93.16 362.86 93.16 362.86 94.59 365.35 94.59 365.35 95.94 362.86 95.94 362.86 97.65 365.87 97.65 365.87 99.05 361.25 99.05 361.25 91.76"/><g class="cls-3"><path d="M369,96.26h2l-.3-.82c-.21-.57-.48-1.3-.67-1.85h0c-.19.55-.45,1.28-.68,1.89Zm.23-4.5h1.55l3,7.29H372l-.59-1.53H368.5l-.59,1.53h-1.64Z"/></g><polygon points="375.52 93.16 373.16 93.16 373.16 91.76 379.47 91.76 379.47 93.16 377.12 93.16 377.12 99.05 375.52 99.05 375.52 93.16"/><rect x="380.29" y="91.76" width="1.6" height="7.29"/><g class="cls-3"><path d="M382.52,91.76h1.72l1.17,3.2c.24.65.49,1.33.71,2h0c.23-.66.47-1.32.72-2l1.2-3.19h1.64l-2.78,7.29h-1.61Z"/></g><polygon points="390.33 91.76 394.83 91.76 394.83 93.16 391.94 93.16 391.94 94.59 394.43 94.59 394.43 95.94 391.94 95.94 391.94 97.65 394.94 97.65 394.94 99.05 390.33 99.05 390.33 91.76"/><text class="cls-4" transform="translate(87.14 180.12)">‥are a </text><text class="cls-4" transform="translate(172.63 180.12)">girl&apos;s</text><line class="cls-5" x1="172.62" y1="173.12" x2="233.71" y2="173.12"/><text class="cls-4" transform="translate(233.71 180.12)"><tspan xml:space="preserve"> busines</tspan><tspan class="cls-6" x="105.47" y="0">s</tspan><tspan class="cls-7" x="119.15" y="0">&apos;</tspan><tspan x="124.58" y="0">s best friend</tspan></text></svg>