<svg xmlns="http://www.w3.org/2000/svg" viewBox="0 0 1280 1280"><defs><style>.cls-1{fill:#fee050;}.cls-2,.cls-3,.cls-4,.cls-5{fill:none;stroke:#000;stroke-linecap:round;stroke-linejoin:round;}.cls-2{stroke-width:12.38px;}.cls-3{stroke-width:12.38px;}.cls-4{stroke-width:12.38px;}.cls-5{stroke-width:11.41px;}.cls-6{opacity:0.6;}.cls-7{fill:#c08ffb;}.cls-8{fill:#1f0041;}</style></defs><title>facets-creative-gallery-image</title><g id="BG"><rect class="cls-1" width="1280" height="1280"/></g><g id="Cloud"><path class="cls-2" d="M828,1050.67h199.68l16.76-.67c53.16-5.76,93.24-49.62,93.24-102,0-47.28-33-88.17-79.26-99.52-4.38-52.59-50-94.39-104.5-94.39-43.44,0-82.54,26.76-97.91,66a73.81,73.81,0,0,0-20.35-2.83c-38.31,0-69.79,29.18-72.45,66-37.87,9.77-64.71,43.37-64.71,82.26,0,46.94,39,85.14,87,85.14Z"/><path class="cls-2" d="M1014,925.17c0,41.28-34.19,74.74-76.35,74.74s-76.35-33.46-76.35-74.74,34.19-74.41,76.35-74.41h35.54"/><polyline class="cls-2" points="940.05 890.53 972.74 856.96 973.17 850.77 939.6 818.07"/></g><g id="Picture"><rect class="cls-3" x="142.29" y="754.07" width="385.13" height="296.59"/><polyline class="cls-3" points="488.78 991.82 404.93 910.09 352.68 961.01 384.28 991.82 278.44 888.64 172.76 991.66"/><path class="cls-3" d="M387.09,800h0c-17.42,0-31.6,13.79-31.6,30.78s14.18,30.79,31.6,30.79,31.57-13.81,31.57-30.79S404.5,800,387.09,800Z"/></g><g id="Monitor"><polyline class="cls-4" points="836.31 525.93 999.92 525.93 918.12 525.93 918.12 470.28"/><path class="cls-4" d="M759.12,229.33h318a26.58,26.58,0,0,1,26.58,26.57V443.7a26.58,26.58,0,0,1-26.58,26.57h-318a26.57,26.57,0,0,1-26.57-26.57V255.9A26.58,26.58,0,0,1,759.12,229.33Z"/><line class="cls-4" x1="732.54" y1="418" x2="1103.69" y2="418"/><line class="cls-4" x1="941.87" y1="443.86" x2="894.37" y2="443.86"/></g><g id="Bulb"><path class="cls-5" d="M310.06,500.41c0,14.09,11.1,25.52,24.79,25.52s24.79-11.43,24.79-25.52Z"/><line class="cls-5" x1="371.77" y1="475.69" x2="297.93" y2="475.69"/><path class="cls-5" d="M424.65,321.77c0-52-41.69-94-92.54-92.39-48,1.47-87.43,43.66-87.06,93.11a93.22,93.22,0,0,0,25.24,63.41c15.94,16.93,25.51,39.11,25.51,62.67V451h78.11v-1.77c0-23.19,8.45-45.78,24.41-62.17A93.24,93.24,0,0,0,424.65,321.77Z"/><polyline class="cls-5" points="309.01 321.41 335.26 347.59 360.7 321.41 335.71 346.94 335.71 446.04"/></g><g id="Icon"><g id="_Group_" data-name="&lt;Group&gt;" class="cls-6"><rect id="_Rectangle_" data-name="&lt;Rectangle&gt;" class="cls-7" x="590" y="1080" width="100" height="100"/><rect id="_Rectangle_2" data-name="&lt;Rectangle&gt;" class="cls-8" x="594.4" y="1084.4" width="91.2" height="91.2"/><g id="_Group_2" data-name="&lt;Group&gt;"><path id="_Compound_Path_" data-name="&lt;Compound Path&gt;" class="cls-7" d="M618.1,1136.74l-3.61,12.31c-.06.42-.24.57-.59.57h-6c-.41,0-.53-.22-.41-.71,3.19-10.82,8.58-28.86,12.37-41.1a17.3,17.3,0,0,0,.47-3.89.37.37,0,0,1,.35-.42h8.17c.3,0,.36.07.47.35,4.38,14.5,9.18,30.49,13.68,45.13.11.42,0,.64-.36.64H636c-.29,0-.41-.15-.53-.43l-3.79-12.45Zm11.95-6.93c-1.18-4.74-4.08-14.29-5.26-19.24h-.06c-.89,4.67-3.32,12.66-5.09,19.24Z"/></g><g id="_Group_3" data-name="&lt;Group&gt;"><path id="_Compound_Path_2" data-name="&lt;Compound Path&gt;" class="cls-7" d="M652.1,1134.08c.12,5.29,3,9.05,9,9.05a16.72,16.72,0,0,0,7.54-1.74c.18-.07.37,0,.37.35v5.56c0,.49-.13.63-.37.77-2.35,1.39-5.19,1.88-9.05,2-11,0-15-8.63-15-17.4,0-9.95,5.13-17.82,14.18-17.82,8.87,0,12.43,7.8,12.43,14.27,0,3-.3,4.38-.55,4.59-.72.35-3,.42-6.33.42Zm9.66-5.36c2.23,0,2.59-.28,2.65-.56v-.76c0-2.09-1.21-6.61-5.85-6.61-3.92,0-6,3.48-6.46,7.93Z"/></g></g></g></svg>